<?xml version="1.0" encoding="utf-8"?>
<!-- Generator: Adobe Illustrator 24.1.3, SVG Export Plug-In . SVG Version: 6.00 Build 0)  -->
<svg version="1.1" xmlns="http://www.w3.org/2000/svg" xmlns:xlink="http://www.w3.org/1999/xlink" x="0px" y="0px"
	 viewBox="0 0 683.6 761" style="enable-background:new 0 0 683.6 761;" xml:space="preserve">
<style type="text/css">
	.st0{fill:#24102F;}
	.st1{fill:#FFFFFF;}
	.st2{fill:url(#SVGID_1_);}
	.st3{fill:url(#SVGID_2_);}
	.st4{fill:url(#SVGID_3_);}
	.st5{fill:url(#SVGID_4_);}
	.st6{fill:url(#SVGID_5_);}
</style>
<g id="b5c0e5b8-29e4-4820-a986-e08c8b5e3595">
	<path class="st0" d="M474.7,206.2h-4V96.7c0-35-28.4-63.4-63.4-63.4l0,0H175.2c-35,0-63.4,28.4-63.4,63.4c0,0,0,0,0,0v601
		c0,35,28.4,63.4,63.4,63.4h232.1c35,0,63.4-28.4,63.4-63.4V284.2h4L474.7,206.2z"/>
	<path class="st1" d="M457.2,97.1v600.1c0,26.2-21.2,47.3-47.3,47.3H176.7c-26.1,0-47.3-21.2-47.3-47.3c0,0,0,0,0,0V97.1
		c0-26.1,21.2-47.3,47.3-47.3c0,0,0,0,0,0H205c-4.7,11.5,0.8,24.6,12.3,29.3c2.7,1.1,5.6,1.7,8.5,1.7h133
		c12.4,0,22.5-10.1,22.5-22.5c0-2.9-0.6-5.8-1.7-8.5h30.3C436,49.8,457.2,71,457.2,97.1z"/>
	<linearGradient id="SVGID_1_" gradientUnits="userSpaceOnUse" x1="177.2236" y1="172.1744" x2="292.2249" y2="125.7109">
		<stop  offset="0" style="stop-color:#FFBE15"/>
		<stop  offset="1" style="stop-color:#FFA300"/>
	</linearGradient>
	<circle class="st2" cx="234.7" cy="148.9" r="62"/>
	<linearGradient id="SVGID_2_" gradientUnits="userSpaceOnUse" x1="357.9399" y1="358.382" x2="343.3094" y2="525.6098">
		<stop  offset="0" style="stop-color:#16A77C"/>
		<stop  offset="1" style="stop-color:#1C4A2E"/>
	</linearGradient>
	<path class="st3" d="M309.7,438c4.5-46.1,26.6-81.7,49.2-79.5s37.3,41.4,32.7,87.6s-26.6,81.7-49.2,79.5
		C319.8,523.3,305.1,484.1,309.7,438z"/>
	<path class="st0" d="M340.9,579.1c-6.7-100,19.2-196.4,19.5-197.4l3.1,0.9c-0.3,1-26,96.9-19.4,196.3L340.9,579.1z"/>
	
		<rect x="348.5" y="435.5" transform="matrix(0.9238 -0.3829 0.3829 0.9238 -139.2122 174.8017)" class="st0" width="42.2" height="3.3"/>
	
		<rect x="327.9" y="422.1" transform="matrix(0.5561 -0.8311 0.8311 0.5561 -222.1093 470.6006)" class="st0" width="3.3" height="42.2"/>
	<linearGradient id="SVGID_3_" gradientUnits="userSpaceOnUse" x1="284.9652" y1="140.56" x2="244.959" y2="466.3846">
		<stop  offset="0" style="stop-color:#16A77C"/>
		<stop  offset="1" style="stop-color:#1C4A2E"/>
	</linearGradient>
	<path class="st4" d="M184.9,295.6c8.9-90.2,52-159.8,96.2-155.5s72.9,81,64,171.3s-52,159.8-96.2,155.5S176,385.8,184.9,295.6z"/>
	<path class="st0" d="M247.5,571.5c-13.1-195.3,37.5-383.6,38-385.5l3.1,0.9c-0.5,1.9-50.9,189.7-37.9,384.5L247.5,571.5z"/>
	
		<rect x="260.8" y="292.4" transform="matrix(0.9238 -0.3829 0.3829 0.9238 -89.5563 138.0343)" class="st0" width="82.5" height="3.3"/>
	
		<rect x="222.1" y="264.6" transform="matrix(0.5561 -0.8311 0.8311 0.5561 -154.9424 321.6883)" class="st0" width="3.3" height="82.5"/>
	<linearGradient id="SVGID_4_" gradientUnits="userSpaceOnUse" x1="556.445" y1="34.9143" x2="368.7318" y2="419.7833">
		<stop  offset="0" style="stop-color:#2CA383"/>
		<stop  offset="0.2086" style="stop-color:#2C9E84"/>
		<stop  offset="0.4563" style="stop-color:#2A9085"/>
		<stop  offset="0.724" style="stop-color:#287888"/>
		<stop  offset="1" style="stop-color:#25578C"/>
	</linearGradient>
	<path class="st5" d="M354.7,213C366.9,89.6,425.8-5.7,486.3,0.3s99.7,110.9,87.5,234.4s-71.1,218.7-131.6,212.8
		S342.6,336.5,354.7,213z"/>
	<path class="st0" d="M441.1,590.6c-17.9-267.2,51.3-524.8,52-527.4l3.1,0.9c-0.7,2.6-69.7,259.7-51.9,526.3L441.1,590.6z"/>
	
		<rect x="458.6" y="209.3" transform="matrix(0.9238 -0.3829 0.3829 0.9238 -41.5062 213.2475)" class="st0" width="112.9" height="3.3"/>
	
		<rect x="406.2" y="170.7" transform="matrix(0.5561 -0.8311 0.8311 0.5561 -7.7656 439.7752)" class="st0" width="3.3" height="112.9"/>
	<linearGradient id="SVGID_5_" gradientUnits="userSpaceOnUse" x1="293.2642" y1="554.9933" x2="293.2642" y2="747.9427">
		<stop  offset="0" style="stop-color:#16A77C"/>
		<stop  offset="1" style="stop-color:#1C4A2E"/>
	</linearGradient>
	<path class="st6" d="M129.3,587.2l-2,112.5c0,26.6,23.2,48.2,49.3,48.2h233.2c26.2,0,49.3-21.6,49.3-48.2l-2-111.5
		C339.6,542.7,230.9,545.5,129.3,587.2z"/>
	<path class="st0" d="M626.8,196.1l12.4-9.9c-9.6-1.1-13.6,4.2-15.2,8.4c-7.5-3.1-15.7,1-15.7,1l24.8,9
		C631.9,201.1,629.7,198.2,626.8,196.1z"/>
	<path class="st0" d="M323.4,108.4l12.4-9.9c-9.6-1.1-13.6,4.2-15.2,8.4c-7.5-3.1-15.7,1-15.7,1l24.8,9
		C328.5,113.5,326.3,110.6,323.4,108.4z"/>
	<path class="st0" d="M75.8,188.6l12.4-9.9c-9.6-1.1-13.6,4.2-15.2,8.4c-7.5-3.1-15.7,1-15.7,1l24.8,9
		C80.8,193.7,78.7,190.8,75.8,188.6z"/>
</g>
<g id="Layer_2">
</g>
</svg>
